<?xml version="1.0" encoding="UTF-8"?>
<svg width="33px" height="28px" viewBox="0 0 33 28" version="1.1" xmlns="http://www.w3.org/2000/svg" xmlns:xlink="http://www.w3.org/1999/xlink">
    <title>seek_backward</title>
    <g id="Page-1" stroke="none" stroke-width="1" fill="none" fill-rule="evenodd">
        <g id="seek_backward" fill="#FFFFFF">
            <path d="M11.3302476,1.71755919 C6.85873167,4.18186132 4.12117023,8.92746467 4.12117023,13.9463273 L1.29169429,11.1176794 L0.014,12.3953737 L4.39442954,16.7758033 C4.57660241,16.9579761 4.80514656,17.0490626 5.03369071,17.0490626 C5.2614068,17.0490626 5.48912289,16.9579761 5.67212382,16.7758033 L10.2347262,12.2132008 L8.95786,10.9346785 L5.99175441,13.9007841 C6.03729763,9.56589778 8.40968527,5.45955561 12.2891394,3.31488406 C15.1177873,1.76310241 18.4035235,1.35238538 21.5518019,2.26490587 C24.7000804,3.17825441 27.255469,5.23101146 28.8527938,8.0604874 C30.4037474,10.8891353 30.8152925,14.1748715 29.901944,17.3231499 C28.9894235,20.4258852 26.9358384,23.026817 24.1071905,24.6241418 C21.2777146,26.1750954 17.9928064,26.5866405 14.8436999,25.673292 C11.7409647,24.7607715 9.14003288,22.7080144 7.54353606,19.8785385 C7.54353606,19.8801946 5.94124284,20.7364071 5.94538313,20.7455158 C7.77125215,24.031252 10.7373577,26.4036396 14.3418965,27.4527897 C15.6195907,27.8179635 16.9428282,28.0009645 18.2668938,28.0009645 C20.5937382,28.0009645 22.9205827,27.4072465 25.019711,26.2670099 C28.3046191,24.4411409 30.6778348,21.4758634 31.7269849,17.8704966 C32.5939622,14.2659579 32.137702,10.4784183 30.3582042,7.2382253 C26.6170359,0.486236179 18.0838929,-1.9772379 11.3302476,1.71838725 L11.3302476,1.71755919 Z" id="Path"></path>
        </g>
    </g>
</svg>