<?xml version="1.0" encoding="UTF-8"?>
<svg width="32px" height="28px" viewBox="0 0 32 28" version="1.1" xmlns="http://www.w3.org/2000/svg" xmlns:xlink="http://www.w3.org/1999/xlink">
    <title>seek-forward</title>
    <g id="Page-1" stroke="none" stroke-width="1" fill="none" fill-rule="evenodd">
        <path d="M20.7329909,1.71750756 C25.1848577,4.18149122 27.9110796,8.9270338 27.9110796,13.945797 L30.7280381,11.1169638 L32,12.3947701 L27.6388698,16.7754632 C27.4573967,16.9578879 27.2297303,17.0486838 27.002064,17.0486838 C26.7752225,17.0486838 26.5483811,16.9570549 26.3669079,16.7754632 L21.8226548,12.2123454 L23.0962665,10.9345391 L26.0493299,13.8999826 C26.0039616,9.56593694 23.640686,5.45929749 19.7794319,3.3143489 C16.9624735,1.76332199 13.6918321,1.35265805 10.5564706,2.26478182 C7.42193412,3.17773858 4.87718539,5.23022531 3.28682054,8.05989148 C1.74264887,10.8887247 1.33350936,14.1740362 2.24170008,17.3227374 C3.15071567,20.4256242 5.19476343,23.0262182 8.01172192,24.6238926 C10.8286804,26.1749195 14.1001467,26.5855834 17.2346832,25.6734596 C20.3246763,24.7605029 22.9139685,22.7071832 24.5043333,19.87835 C24.5043333,19.87835 26.1012972,20.7321645 26.0946982,20.7446593 C24.2774919,24.0299709 21.3244285,26.4031587 17.7345593,27.4527257 C16.4625974,27.8175752 15.1444423,28 13.8279369,28 C11.5100297,28 9.19294726,27.4069113 7.1035312,26.2665483 C3.83124005,24.4398018 1.46796448,21.4743583 0.42366889,17.8700117 C-0.439153533,14.2656651 0.0161791416,10.4788937 1.78719228,7.23856359 C5.51234148,0.485515724 14.0085852,-1.97846794 20.7329909,1.71750756 Z" id="seek-forward" fill="#FFFFFF" fill-rule="nonzero"></path>
    </g>
</svg>