<?xml version="1.0" encoding="UTF-8"?>
<svg width="35px" height="28px" viewBox="0 0 35 28" version="1.1" xmlns="http://www.w3.org/2000/svg" xmlns:xlink="http://www.w3.org/1999/xlink">
    <title>captions</title>
    <g id="Page-1" stroke="none" stroke-width="1" fill="none" fill-rule="evenodd">
        <path d="M34.3637448,0 L0,0 L0,28 L34.3637448,28 L34.3637448,0 Z M3.81872391,14.3184258 L3.81872391,13.6815742 L11.836613,13.6815742 L11.836613,17.5002982 L3.81872391,17.5002982 L3.81872391,14.3184258 Z M19.9821109,24.4997018 L3.81872391,24.4997018 L3.81872391,20.6821705 L19.9821109,20.6821705 L19.9821109,23.8640429 L19.9821109,24.4997018 Z M30.5462135,24.4997018 L22.5271318,24.4997018 L22.5271318,20.6821705 L30.5462135,20.6821705 L30.5462135,23.8640429 L30.5462135,24.4997018 Z M30.5462135,17.5002982 L14.3816339,17.5002982 L14.3816339,13.6815742 L30.5462135,13.6815742 L30.5462135,16.8634466 L30.5462135,17.5002982 Z" id="captions" fill="#FFFFFF" fill-rule="nonzero"></path>
    </g>
</svg>