<?xml version="1.0" encoding="UTF-8"?>
<svg width="28px" height="28px" viewBox="0 0 28 28" version="1.1" xmlns="http://www.w3.org/2000/svg" xmlns:xlink="http://www.w3.org/1999/xlink">
    <title>volume_high</title>
    <g id="Page-1" stroke="none" stroke-width="1" fill="none" fill-rule="evenodd">
        <g id="volume_high" fill="#000000" fill-rule="nonzero">
            <path d="M0,9.33333333 L0,18.6666667 L6.22222222,18.6666667 L14,26.4444444 L14,1.55555556 L6.22222222,9.33333333 L0,9.33333333 Z M21,14 C21,11.2544444 19.4133333,8.88222222 17.1111111,7.73888889 L17.1111111,20.2688889 C19.4133333,19.1177778 21,16.7455556 21,14 Z M17.1111111,0.357777778 L17.1111111,3.57 C21.6066667,4.90777778 24.8888889,9.06888889 24.8888889,14 C24.8888889,18.9311111 21.6066667,23.0922222 17.1111111,24.43 L17.1111111,27.6422222 C23.3411111,26.2266667 28,20.6655556 28,14 C28,7.33444444 23.3411111,1.77333333 17.1111111,0.357777778 Z" id="Shape"></path>
        </g>
    </g>
</svg>